# Blender 3.4.1
# www.blender.org
o Cone
v 0.000000 1.000000 0.696594
v 0.696594 1.000000 -0.000000
v 0.000000 1.000000 -0.696594
v -0.696594 1.000000 -0.000000
v 0.000000 -1.000000 0.000000
vn 0.6866 -0.2391 0.6866
vn 0.6866 -0.2391 -0.6866
vn -0.0000 1.0000 -0.0000
vn -0.6866 -0.2391 -0.6866
vn -0.6866 -0.2391 0.6866
vt 0.750000 0.490000
vt 0.250000 0.490000
vt 0.490000 0.250000
vt 0.990000 0.250000
vt 0.250000 0.010000
vt 0.750000 0.010000
vt 0.010000 0.250000
vt 0.510000 0.250000
vt 0.250000 0.250000
s 0
f 1/2/1 5/9/1 2/3/1
f 2/3/2 5/9/2 3/5/2
f 2/4/3 4/8/3 1/1/3
f 3/5/4 5/9/4 4/7/4
f 4/7/5 5/9/5 1/2/5
f 2/4/3 3/6/3 4/8/3
